<svg width="135" height="47" viewBox="0 0 135 47" fill="none" xmlns="http://www.w3.org/2000/svg">
<path d="M19.8935 4.61394C18.7197 4.61394 17.5746 4.72501 16.4616 4.92923C16.4186 4.9364 16.3829 4.90415 16.3829 4.86116V0.841168C16.3829 0.748013 16.3077 0.669189 16.2111 0.669189H11.9274C11.8344 0.669189 11.7556 0.74443 11.7556 0.841168V6.40896C11.7556 6.43404 11.7413 6.45913 11.7163 6.46987C5.35698 9.52249 0.962372 16.0326 0.962372 23.5674C0.962372 31.1022 5.35698 37.6087 11.7163 40.6649C11.7413 40.6756 11.7556 40.7007 11.7556 40.7258V46.2936C11.7556 46.3867 11.8308 46.4656 11.9274 46.4656H16.2111C16.3041 46.4656 16.3829 46.3903 16.3829 46.2936V42.27C16.3829 42.227 16.4222 42.1948 16.4616 42.2019C17.5746 42.4062 18.7197 42.5172 19.8935 42.5172C30.3504 42.5172 38.8247 34.033 38.8247 23.5638C38.8247 13.0946 30.3468 4.61394 19.8935 4.61394ZM5.41781 23.5674C5.41781 18.6409 7.8871 14.2841 11.6483 11.6615C11.6948 11.6292 11.7592 11.6615 11.7592 11.7188V35.416C11.7592 35.4733 11.6948 35.5055 11.6483 35.4733C7.8871 32.8542 5.41781 28.4938 5.41781 23.5674V23.5674ZM21.4968 37.9741C19.7647 38.164 18.0899 38.0422 16.5153 37.6624C16.4365 37.6445 16.3829 37.5729 16.3829 37.494V9.64431C16.3829 9.56548 16.4365 9.49382 16.5153 9.47591C17.5996 9.21436 18.7305 9.07463 19.8971 9.07463C28.1674 9.07463 34.8416 16.0541 34.3478 24.4416C33.9362 31.4354 28.4537 37.211 21.5004 37.9741H21.4968Z" fill="black"></path>
<path d="M51.7186 27.0249C51.7974 26.9246 51.9477 26.9425 52.0121 27.05C53.4793 29.601 56.1025 30.9267 58.8295 30.9267C61.5564 30.9267 63.2133 29.9091 63.2133 27.978C63.2133 26.3621 61.9858 25.8354 60.3039 25.4162L55.8484 24.3987C52.7636 23.6964 50.3409 21.9766 50.3409 18.2899C50.3409 14.2878 53.4972 11.5469 58.196 11.5469C62.0574 11.5469 64.906 13.2452 66.631 15.6385C66.6811 15.7102 66.6739 15.8069 66.6131 15.8678L64.1474 18.4618C64.065 18.5478 63.9219 18.5299 63.8646 18.426C62.791 16.5307 60.9337 15.1298 58.1925 15.1298C55.9844 15.1298 54.4384 16.1831 54.4384 18.0104C54.4384 19.5904 55.6301 20.0813 57.2441 20.4682L61.3488 21.45C65.1351 22.3278 67.3467 24.0834 67.3467 27.806C67.3467 32.0911 63.5927 34.5131 58.8223 34.5131C54.7032 34.5131 51.3035 32.8722 49.3925 30.1313C49.346 30.0668 49.3496 29.9772 49.3997 29.9127L51.7115 27.0285L51.7186 27.0249Z" fill="black"></path>
<path d="M78.1185 26.0143V33.9074C78.1185 34.0077 78.0397 34.0865 77.9395 34.0865H73.9135C73.8133 34.0865 73.7346 34.0077 73.7346 33.9074V12.145C73.7346 12.0446 73.8133 11.9658 73.9135 11.9658H81.9405C87.5518 11.9658 90.812 14.4953 90.812 18.8844C90.812 23.2734 87.5518 25.8387 81.9405 25.8387H78.2974C78.1972 25.8387 78.1185 25.9176 78.1185 26.0179V26.0143ZM81.7651 22.2523C84.9215 22.2523 86.5355 21.1989 86.5355 18.8808C86.5355 16.5627 84.9215 15.5451 81.7651 15.5451H78.2974C78.1972 15.5451 78.1185 15.6239 78.1185 15.7243V22.0731C78.1185 22.1734 78.1972 22.2523 78.2974 22.2523H81.7651Z" fill="black"></path>
<path d="M95.0849 33.911V30.4427C95.0849 30.3424 95.1637 30.2636 95.2639 30.2636H100.8C100.9 30.2636 100.979 30.1848 100.979 30.0845V15.9715C100.979 15.8712 100.9 15.7923 100.8 15.7923H95.2639C95.1637 15.7923 95.0849 15.7135 95.0849 15.6132V12.145C95.0849 12.0446 95.1637 11.9658 95.2639 11.9658H111.11C111.21 11.9658 111.289 12.0446 111.289 12.145V15.6132C111.289 15.7135 111.21 15.7923 111.11 15.7923H105.578C105.477 15.7923 105.399 15.8712 105.399 15.9715V30.0809C105.399 30.1812 105.477 30.26 105.578 30.26H111.11C111.21 30.26 111.289 30.3388 111.289 30.4392V33.9074C111.289 34.0077 111.21 34.0865 111.11 34.0865H95.2639C95.1637 34.0865 95.0849 34.0077 95.0849 33.9074V33.911Z" fill="black"></path>
<path d="M130.414 26.4227V12.145C130.414 12.0446 130.492 11.9658 130.592 11.9658H134.232C134.332 11.9658 134.411 12.0446 134.411 12.145V33.9074C134.411 34.0077 134.332 34.0865 134.232 34.0865H130.482C130.417 34.0865 130.356 34.0507 130.324 33.9934L121.417 17.874C121.327 17.7128 121.08 17.7773 121.08 17.96V33.9074C121.08 34.0077 121.002 34.0865 120.901 34.0865H117.262C117.162 34.0865 117.083 34.0077 117.083 33.9074V12.145C117.083 12.0446 117.162 11.9658 117.262 11.9658H122.168C122.233 11.9658 122.294 12.0016 122.326 12.059L130.077 26.5052C130.167 26.67 130.414 26.6055 130.414 26.4192V26.4227Z" fill="black"></path>
</svg>
