<svg width="134" height="47" viewBox="0 0 134 47" fill="none" xmlns="http://www.w3.org/2000/svg">
<path d="M19.0444 4.61394C17.8706 4.61394 16.7254 4.72501 15.6124 4.92923C15.5695 4.9364 15.5337 4.90415 15.5337 4.86116V0.841168C15.5337 0.748013 15.4585 0.669189 15.3619 0.669189H11.0783C10.9852 0.669189 10.9065 0.74443 10.9065 0.841168V6.40896C10.9065 6.43404 10.8922 6.45913 10.8671 6.46987C4.50782 9.52249 0.113213 16.0326 0.113213 23.5674C0.113213 31.1022 4.50782 37.6087 10.8671 40.6649C10.8922 40.6756 10.9065 40.7007 10.9065 40.7258V46.2936C10.9065 46.3867 10.9816 46.4656 11.0783 46.4656H15.3619C15.455 46.4656 15.5337 46.3903 15.5337 46.2936V42.27C15.5337 42.227 15.5731 42.1948 15.6124 42.2019C16.7254 42.4062 17.8706 42.5172 19.0444 42.5172C29.5012 42.5172 37.9755 34.033 37.9755 23.5638C37.9755 13.0946 29.4977 4.61394 19.0444 4.61394ZM4.56866 23.5674C4.56866 18.6409 7.03794 14.2841 10.7991 11.6615C10.8456 11.6292 10.9101 11.6615 10.9101 11.7188V35.416C10.9101 35.4733 10.8456 35.5055 10.7991 35.4733C7.03794 32.8542 4.56866 28.4938 4.56866 23.5674V23.5674ZM20.6476 37.9741C18.9155 38.164 17.2407 38.0422 15.6661 37.6624C15.5874 37.6445 15.5337 37.5729 15.5337 37.494V9.64431C15.5337 9.56548 15.5874 9.49382 15.6661 9.47591C16.7504 9.21436 17.8813 9.07463 19.0479 9.07463C27.3183 9.07463 33.9925 16.0541 33.4986 24.4416C33.0871 31.4354 27.6045 37.211 20.6512 37.9741H20.6476Z" fill="white"/>
<path d="M50.8695 27.0249C50.9482 26.9246 51.0985 26.9425 51.1629 27.05C52.6302 29.601 55.2533 30.9267 57.9803 30.9267C60.7072 30.9267 62.3642 29.9091 62.3642 27.978C62.3642 26.3621 61.1367 25.8354 59.4547 25.4162L54.9993 24.3987C51.9144 23.6964 49.4917 21.9766 49.4917 18.2899C49.4917 14.2878 52.6481 11.5469 57.3469 11.5469C61.2082 11.5469 64.0569 13.2452 65.7818 15.6385C65.8319 15.7102 65.8247 15.8069 65.7639 15.8678L63.2982 18.4618C63.2159 18.5478 63.0727 18.5299 63.0155 18.426C61.9419 16.5307 60.0845 15.1298 57.3433 15.1298C55.1352 15.1298 53.5893 16.1831 53.5893 18.0104C53.5893 19.5904 54.781 20.0813 56.3949 20.4682L60.4997 21.45C64.2859 22.3278 66.4975 24.0834 66.4975 27.806C66.4975 32.0911 62.7435 34.5131 57.9731 34.5131C53.8541 34.5131 50.4543 32.8722 48.5433 30.1313C48.4968 30.0668 48.5004 29.9772 48.5505 29.9127L50.8623 27.0285L50.8695 27.0249Z" fill="white"/>
<path d="M77.2693 26.0143V33.9074C77.2693 34.0077 77.1906 34.0865 77.0904 34.0865H73.0644C72.9642 34.0865 72.8854 34.0077 72.8854 33.9074V12.145C72.8854 12.0446 72.9642 11.9658 73.0644 11.9658H81.0913C86.7027 11.9658 89.9628 14.4953 89.9628 18.8844C89.9628 23.2734 86.7027 25.8387 81.0913 25.8387H77.4482C77.348 25.8387 77.2693 25.9176 77.2693 26.0179V26.0143ZM80.916 22.2523C84.0724 22.2523 85.6863 21.1989 85.6863 18.8808C85.6863 16.5627 84.0724 15.5451 80.916 15.5451H77.4482C77.348 15.5451 77.2693 15.6239 77.2693 15.7243V22.0731C77.2693 22.1734 77.348 22.2523 77.4482 22.2523H80.916Z" fill="white"/>
<path d="M94.2358 33.911V30.4427C94.2358 30.3424 94.3145 30.2636 94.4147 30.2636H99.9509C100.051 30.2636 100.13 30.1848 100.13 30.0845V15.9715C100.13 15.8712 100.051 15.7923 99.9509 15.7923H94.4147C94.3145 15.7923 94.2358 15.7135 94.2358 15.6132V12.145C94.2358 12.0446 94.3145 11.9658 94.4147 11.9658H110.261C110.361 11.9658 110.44 12.0446 110.44 12.145V15.6132C110.44 15.7135 110.361 15.7923 110.261 15.7923H104.728C104.628 15.7923 104.549 15.8712 104.549 15.9715V30.0809C104.549 30.1812 104.628 30.26 104.728 30.26H110.261C110.361 30.26 110.44 30.3388 110.44 30.4392V33.9074C110.44 34.0077 110.361 34.0865 110.261 34.0865H94.4147C94.3145 34.0865 94.2358 34.0077 94.2358 33.9074V33.911Z" fill="white"/>
<path d="M129.564 26.4227V12.145C129.564 12.0446 129.643 11.9658 129.743 11.9658H133.383C133.483 11.9658 133.562 12.0446 133.562 12.145V33.9074C133.562 34.0077 133.483 34.0865 133.383 34.0865H129.632C129.568 34.0865 129.507 34.0507 129.475 33.9934L120.568 17.874C120.478 17.7128 120.231 17.7773 120.231 17.96V33.9074C120.231 34.0077 120.152 34.0865 120.052 34.0865H116.413C116.313 34.0865 116.234 34.0077 116.234 33.9074V12.145C116.234 12.0446 116.313 11.9658 116.413 11.9658H121.319C121.384 11.9658 121.444 12.0016 121.477 12.059L129.228 26.5052C129.317 26.67 129.564 26.6055 129.564 26.4192V26.4227Z" fill="white"/>
</svg>
